<?xml version="1.0" encoding="utf-8"?>
<!-- Generator: Adobe Illustrator 15.0.2, SVG Export Plug-In . SVG Version: 6.00 Build 0)  -->
<svg version="1.2" baseProfile="tiny" id="Layer_1" xmlns="http://www.w3.org/2000/svg" xmlns:xlink="http://www.w3.org/1999/xlink"
	 x="0px" y="0px" width="163.027px" height="71.531px" viewBox="0 0 163.027 71.531" overflow="inherit" xml:space="preserve">
<rect x="-5.987" y="-5.734" fill="#FFFFFF" fill-opacity="0" width="177" height="85"/>
<g>
	<path d="M132.11,28.164c-0.195-6.007-0.978-12.795-0.781-17.385c0.099-3.76,0.685-5.714,0.342-7.667
		c-0.293-1.758-3.174-3.614-6.3-3.028c-0.537,0.099-1.465,0.488-1.758,1.026c0.195,1.172,0.488,3.271,0.586,5.079
		c-0.293-0.195-0.684-0.244-1.367-0.099c-3.857,0.685-7.96,6.301-8.448,12.062c-1.952,3.614-3.955,5.762-4.785,5.909
		c-0.44,0.098-0.733-0.099-0.83-0.635c-0.244-1.222,0.732-5.079,1.27-7.424c0.635-2.588,0.733-4.395,0.488-5.714
		c-0.342-1.953-1.758-3.223-4.053-2.832c-2.198,0.392-5.226,3.224-7.766,10.158c0.928-2.686,0.928-6.3,0.733-7.52
		c-0.244-1.515-0.83-2.002-2.491-1.709c-3.077,0.536-6.593,6.544-6.055,9.474c0.146,0.928,0.439,1.905,0.928,2.784
		c-2.246,4.542-4.346,6.738-5.323,6.886c-0.391,0.098-0.635-0.049-0.781-1.026c-0.243-1.27-0.146-4.542,0.488-11.134
		c0.146-1.465,0.099-2.734-0.049-3.37c-0.293-1.758-2.539-3.711-5.958-3.125c-0.684,0.147-1.319,0.44-1.612,0.978l0.343,2.93
		c-0.293-0.195-0.636-0.244-1.367-0.098c-4.981,0.879-9.768,9.767-8.448,17.237c0.781,4.542,3.321,6.495,6.153,6.008
		c1.758-0.293,3.809-1.953,4.59-6.788c0.049,0.78,0.098,1.416,0.195,1.953c0.586,3.174,2.1,3.857,4.297,3.467
		c2.1-0.342,5.225-3.711,7.423-7.081c0.635,2.93,3.077,5.128,5.859,4.639c1.173-0.195,1.466-0.439,1.856-1.025
		c-0.44-3.418-0.537-5.715-0.537-9.67c1.465-3.027,2.979-4.053,3.418-4.15c0.391-0.049,0.635,0.098,0.685,0.488
		c0.194,1.073-1.466,6.593-0.88,9.864c0.488,2.735,1.709,3.858,4.64,3.321c2.588-0.44,5.958-3.858,8.253-7.325
		c1.123,2.784,3.174,3.81,5.469,3.418c2.344-0.391,4.103-3.223,4.542-4.59c0.293,3.81,0.488,7.228,0.537,8.399
		c0.049,1.465-0.293,2.051-1.074,2.197c-1.611,0.293-4.297-1.855-6.886-4.639c-2.491,0.586-3.663,3.125-3.321,5.176
		c0.685,3.956,6.056,5.958,10.061,5.274C128.448,38.126,132.354,35.05,132.11,28.164z M77.66,28.262
		c-0.684,0.146-1.319,0.049-1.66-1.808c-0.684-3.857,0.978-8.398,3.174-10.451l0.244,10.646
		C78.979,27.529,78.344,28.164,77.66,28.262z M123.076,20.644c-0.684,0.146-1.221-0.049-1.562-1.905
		c-0.488-2.832,0.439-7.179,2.979-9.23c0,2.394,0.293,6.642,0.44,9.719C124.394,20.106,123.857,20.497,123.076,20.644z
		 M53.194,40.519c9.815-1.709,16.115-18.411,13.722-31.84c-0.781-4.493-3.76-8.059-8.058-7.325
		c-2.442,0.439-3.956,1.758-3.956,4.004c3.223,2.491,4.542,4.102,5.03,6.886c1.758,9.865-2.491,21.146-6.642,21.878
		c-1.221,0.195-2.198-0.879-2.979-2.734c2.539-5.665,4.98-12.551,4.004-18.069c-0.392-2.198-2.051-3.174-4.2-2.784
		c-4.59,0.733-7.13,11.427-5.518,20.657c-1.466,3.028-2.784,5.03-4.493,5.323c-1.66,0.293-2.638-0.733-2.881-2.101
		c-0.293-1.66-0.195-3.467,0.487-6.495c2.101-9.033,4.2-14.504,3.517-18.411c-0.733-4.297-3.321-5.421-6.935-4.785
		c-5.859,1.025-15.235,10.304-14.015,17.385c0.781,4.297,4.98,6.3,9.522,5.665c-1.172,4.297-1.318,8.105-0.977,9.962
		c0.83,4.639,3.565,7.276,8.595,6.396c3.418-0.586,6.446-2.734,9.034-6.934C48.311,39.933,50.704,40.959,53.194,40.519z
		 M30.975,23.085c-2.832-0.879-3.907-1.807-4.2-3.467c-0.635-3.516,4.004-8.155,5.372-8.398c0.635-0.099,0.977,0.049,1.221,1.27
		C33.66,14.295,32.293,18.104,30.975,23.085z M16.764,67.183c0.049,2.1-0.488,3.809-2.931,3.613
		c-1.465-0.146-1.318-0.83-1.416-2.002c-0.146-2.1-0.293-4.15-0.439-6.251c-0.392,1.319-1.319,2.394-1.416,3.761
		c-0.099,1.758-1.172,3.857-3.272,2.979c-1.025-0.439-1.074-2.832-1.514-3.809c-0.342-0.781-0.733-1.563-1.074-2.345
		c0.098,1.953,0.879,5.616-0.146,7.374c-0.488,0.879-2.246,1.416-3.077,0.685c-0.636-0.586-0.392-2.832-0.44-3.663
		C0.94,65.962,0.843,64.4,0.745,62.837c-0.098-1.514-0.391-2.783-0.684-4.297C-0.426,56,4.213,54.828,5.727,56.39
		c0,0,0,0,0.049,0.049c0.049,0.098,0.049,0.049,0.049,0.049c1.416,1.709,2.344,3.956,3.272,5.958
		c0.732-1.807,1.465-3.663,2.245-5.421c0.781-1.758,2.052-2.246,3.956-1.856c1.759,0.392,1.173,3.81,1.222,5.128
		C16.617,62.592,16.715,64.887,16.764,67.183z M27.654,54.437C27.263,54.437,28.435,54.388,27.654,54.437L27.654,54.437z
		 M25.945,58.246c0.049,0,0.098,0.049,0.146,0.049C26.238,58.392,25.896,58.441,25.945,58.246z M27.654,54.437
		c-7.472,0.342-9.572,15.334-1.66,15.871c5.03,0.342,7.032-3.761,7.081-8.204C33.172,58.588,32,54.242,27.654,54.437z
		 M28.386,66.841c-3.419-0.487-2.687-6.055-2.442-8.546c0.049,0,0.098,0.05,0.146,0.05C29.461,59.369,28.826,64.057,28.386,66.841z
		 M46.601,54.046c1.66,1.905,0,4.444-2.149,4.688c0,1.465,0,2.93,0,4.395c0,1.563,0.293,3.468-0.098,4.981
		c-0.293,1.221-1.758,1.465-2.832,1.514c-1.367,0.049-1.905-0.487-1.953-1.855c-0.147-2.881-0.147-5.812-0.147-8.741
		c-1.366,0.049-2.734,0.195-2.686-1.563c0.049-1.025,0.342-3.027,1.612-3.223C41.083,53.997,43.867,53.851,46.601,54.046z
		 M56.954,53.509c-7.472,0.147-9.962,15.091-2.051,15.822c4.98,0.44,7.13-3.614,7.276-8.058
		C62.326,57.806,61.252,53.411,56.954,53.509z M57.345,65.913c-3.418-0.586-2.539-6.104-2.246-8.595
		c0.049,0,0.098,0.049,0.146,0.049C58.615,58.49,57.882,63.178,57.345,65.913z M56.954,53.509
		C56.515,53.509,57.687,53.46,56.954,53.509L56.954,53.509z M55.099,57.318c0.049,0,0.098,0.049,0.146,0.049
		C55.392,57.465,55.099,57.465,55.099,57.318z M75.218,63.325C75.658,62.836,75.414,63.569,75.218,63.325L75.218,63.325z
		 M75.218,63.325c2.101-2.393,4.396-8.155,0.099-9.815c-1.563-0.587-3.517-0.343-5.03,0.243c-1.27,0.488-3.809,0.147-3.809,2.149
		c0,2.051,0.146,4.102,0.098,6.202c-0.049,1.855-0.293,4.004,0.098,5.859c0.293,1.416,3.125,1.563,3.858,0.439
		c0.537-0.83,0.391-2.198,0.488-3.125c2.051,1.172,2.441,5.714,5.762,3.37c0.928-0.685,1.66-2.394,0.977-3.467
		C76.537,64.985,75.951,64.253,75.218,63.325z M73.46,59.955c-0.098,0.733-0.293,1.515-0.586,2.198
		c-0.537-0.147-1.172-0.293-1.709-0.293c0.049-1.612,0.147-3.223,0.195-4.786C73.07,57.22,73.656,58.295,73.46,59.955z
		 M90.21,59.564c-0.83,0-1.465,0-1.66-0.879c-0.194-0.83-0.391-1.465-1.27-1.709c-0.44,1.709-0.586,3.711-0.537,5.469
		c0.098,2.442,1.856,2.735,3.956,2.735c0.586,0,1.271-0.293,1.416,0.439c0.195,0.978-0.195,2.051-0.977,2.637
		c-1.709,1.271-4.933,1.026-6.739,0.05c-2.344-1.271-2.539-4.151-2.491-6.495c0.098-2.394,0.342-5.763,2.832-6.887
		c2.002-0.928,4.883-2.881,6.934-0.829C93.336,55.56,92.75,59.613,90.21,59.564z M90.21,59.564
		C90.992,59.564,89.869,59.564,90.21,59.564L90.21,59.564z M105.886,53.509C105.642,53.509,106.277,53.509,105.886,53.509
		L105.886,53.509z M108.377,55.365c0,0.44-0.537,1.123-0.732,1.465c-0.929,1.905-1.856,3.76-2.784,5.665
		c-0.635,1.271-0.488,2.394-0.537,3.81c-0.049,1.073-0.146,2.051-1.27,2.539c-1.026,0.439-3.712,0.928-3.956-0.685
		c-0.244-1.465,0-3.125,0.098-4.59c-0.098-0.586-0.44-1.221-0.635-1.807c-0.537-1.466-0.929-3.272-1.709-4.688
		c-2.881-2.149,2.1-4.835,4.053-3.321c1.172,0.929,1.514,3.614,1.953,4.933c0.537-1.465,1.123-5.226,3.077-5.176
		C107.058,53.509,108.181,54.095,108.377,55.365z M119.12,60.15c-0.83,0-1.465,0-1.612-0.928c-0.146-0.83-0.342-1.466-1.221-1.759
		c-0.488,1.709-0.684,3.663-0.635,5.47c0.049,2.441,1.758,2.734,3.907,2.832c0.586,0,1.27-0.244,1.416,0.487
		c0.194,0.978-0.244,2.002-1.026,2.588c-1.758,1.222-4.981,0.88-6.739-0.098c-2.295-1.319-2.441-4.2-2.344-6.544
		c0.147-2.393,0.488-5.714,3.028-6.837c2.002-0.879,4.98-2.784,6.982-0.684C122.295,56.195,121.611,60.248,119.12,60.15z
		 M119.12,60.15C119.853,60.199,118.73,60.15,119.12,60.15L119.12,60.15z M133.624,65.719c0.928,0.78,0.392,2.881-0.391,3.564
		c-1.172,1.026-4.004,0.781-5.421,0.488c-1.856-0.392-2.539-1.367-2.442-3.224c0.098-1.904,0.195-3.809,0.293-5.714
		c0.099-1.611-0.049-3.174,0-4.736c0.099-1.808,2.784-1.905,4.103-1.759c1.904,0.244,1.123,2.832,1.025,4.151
		c-0.146,2.393-0.342,4.786-0.537,7.179C131.378,65.62,132.501,65.669,133.624,65.719z M146.321,70.455
		C146.565,70.406,146.126,70.455,146.321,70.455L146.321,70.455z M149.056,56.195c0.146,0.83,0.098,2.002-0.537,2.637
		c-1.026,0.978-3.467,0.537-4.737,0.488c-0.977-0.049-0.684,1.758-0.733,2.637c1.074-0.049,2.149,0,3.224,0.049
		c0.635,0.05,1.025-0.194,1.221,0.537c0.146,0.586,0,1.367-0.244,1.905c-0.635,1.221-2.246,0.928-3.37,0.879
		c-1.366-0.049-1.073,0.293-1.172,1.563c1.271,0.049,2.539,0.146,3.81,0.194c0.635,0.05,1.221-0.194,1.416,0.586
		c0.243,1.123-0.293,2.638-1.563,2.832c-1.709,0.293-3.614,0.147-5.323-0.098c-2.148-0.293-3.027-1.367-2.881-3.418
		c0.195-2.686,0.392-5.323,0.586-8.009c-0.732-2.002-0.342-3.81,2.002-3.907c2.198-0.098,4.493,0.195,6.69,0.342
		C148.274,55.414,148.909,55.267,149.056,56.195z M161.411,69.868c-1.758,1.953-4.98,1.953-7.276,1.123
		c-1.952-0.733-3.32-3.711-1.122-5.128c2.197-1.367,2.197,1.709,3.76,2.393c0.438,0.195,1.709,0.195,1.416-0.635
		s-1.66-1.612-2.344-2.148c-2.003-1.612-3.468-3.418-2.442-6.104c0.83-2.148,2.979-3.76,5.273-3.614
		c2.394,0.147,5.715,2.295,3.761,5.03c-0.685,0.978-1.953,0.978-2.979,0.635c-0.194-1.123-0.928-1.709-1.953-2.148
		c-0.977,2.002,1.612,3.174,2.881,4.2C162.534,64.985,163.462,67.622,161.411,69.868z M158.627,55.707
		C158.139,55.707,159.409,55.755,158.627,55.707L158.627,55.707z"/>
</g>
</svg>
